<svg width="24" height="24" viewBox="0 0 24 24" fill="none" xmlns="http://www.w3.org/2000/svg">
<path d="M11.2422 18H13.2422C13.3085 18 13.3721 18.0264 13.4189 18.0732C13.4658 18.1201 13.4922 18.1837 13.4922 18.25C13.4922 18.3163 13.4658 18.3799 13.4189 18.4268C13.3721 18.4736 13.3085 18.5 13.2422 18.5H11.2422C11.1759 18.5 11.1123 18.4736 11.0654 18.4268C11.0185 18.3799 10.9922 18.3163 10.9922 18.25C10.9922 18.1837 11.0185 18.1201 11.0654 18.0732C11.1123 18.0264 11.1759 18 11.2422 18Z" fill="#121212" stroke="#121212"/>
<path d="M8.24219 2.5H16.2422C16.7063 2.5 17.1513 2.68451 17.4795 3.0127C17.8077 3.34088 17.9922 3.78587 17.9922 4.25V19.75C17.9922 20.2141 17.8077 20.6591 17.4795 20.9873C17.1513 21.3155 16.7063 21.5 16.2422 21.5H8.24219C7.77806 21.5 7.33307 21.3155 7.00488 20.9873C6.67669 20.6591 6.49219 20.2141 6.49219 19.75V4.25C6.49219 3.78587 6.67669 3.34088 7.00488 3.0127C7.33307 2.68451 7.77806 2.5 8.24219 2.5ZM8.24219 3C7.91067 3 7.59282 3.13179 7.3584 3.36621C7.12398 3.60063 6.99219 3.91848 6.99219 4.25V19.75C6.99219 20.0815 7.12398 20.3994 7.3584 20.6338C7.59282 20.8682 7.91067 21 8.24219 21H16.2422C16.5737 21 16.8916 20.8682 17.126 20.6338C17.3604 20.3994 17.4922 20.0815 17.4922 19.75V4.25C17.4922 3.91848 17.3604 3.60063 17.126 3.36621C16.8916 3.13179 16.5737 3 16.2422 3H8.24219Z" fill="#121212" stroke="#121212"/>
</svg>
