<svg width="24" height="22" viewBox="0 0 24 22" fill="none" xmlns="http://www.w3.org/2000/svg">
<path d="M4 5.86316C4 4.86105 4 4.36 4.19505 3.97705C4.36661 3.64036 4.64036 3.36661 4.97705 3.19505C5.36 3 5.86105 3 6.86316 3H18.1368C19.1389 3 19.64 3 20.0229 3.19505C20.3596 3.36661 20.6334 3.64036 20.8049 3.97705C21 4.36 21 4.86105 21 5.86316V17.1368C21 18.1389 21 18.64 20.8049 19.0229C20.6334 19.3596 20.3596 19.6334 20.0229 19.8049C19.64 20 19.1389 20 18.1368 20H6.86316C5.86105 20 5.36 20 4.97705 19.8049C4.64036 19.6334 4.36661 19.3596 4.19505 19.0229C4 18.64 4 18.1389 4 17.1368V5.86316Z" stroke="#121212" stroke-width="1.5" stroke-linecap="round"/>
<path d="M17.9737 18.793L12.9211 6.66062M20.5 5.04297L4.5 8.27826M12.9211 13.5599C12.9211 15.3053 11.1189 16.5315 10.3333 16.9836C10.2246 17.0462 10.1004 17.0793 9.97368 17.0793C9.84701 17.0793 9.72273 17.0462 9.61411 16.9836C8.82842 16.5315 7.02632 15.3053 7.02632 13.5591C7.02632 11.8468 8.45453 10.7047 9.97368 10.7047C11.5459 10.7047 12.9211 11.8468 12.9211 13.5599Z" stroke="#121212" stroke-width="1.5"/>
</svg>
