<svg width="35" height="35" viewBox="0 0 35 35" fill="none" xmlns="http://www.w3.org/2000/svg">
<g clip-path="url(#clip0_5342_3251)">
<circle cx="17.5" cy="17.5" r="17.5" fill="white"/>
<path d="M24.75 10.8637C25.2141 10.8637 25.6592 11.0648 25.9874 11.4229C26.3156 11.7809 26.5 12.2665 26.5 12.7728V23.5909C26.5 24.0972 26.3156 24.5828 25.9874 24.9408C25.6592 25.2989 25.2141 25.5 24.75 25.5H13.375C12.9109 25.5 12.4658 25.2989 12.1376 24.9408C11.8094 24.5828 11.625 24.0972 11.625 23.5909V12.7728C11.625 12.2665 11.8094 11.7809 12.1376 11.4229C12.4658 11.0648 12.9109 10.8637 13.375 10.8637H24.75ZM17.5155 18.4467L13.494 22.8339L13.4363 22.8912L13.375 22.9427V23.5918H24.75V22.9427L24.6888 22.8921L24.631 22.8349L22.671 20.6966L22.3621 21.0346L22.4102 21.0871C22.5672 21.2588 22.6583 21.4893 22.6651 21.7318C22.6719 21.9742 22.5938 22.2103 22.4468 22.3922C22.2998 22.5741 22.0948 22.6881 21.8735 22.7111C21.6522 22.7341 21.4311 22.6644 21.2553 22.516L21.173 22.4368L17.5155 18.4467ZM22.125 8C22.5665 7.99985 22.9917 8.18175 23.3155 8.50926C23.6392 8.83676 23.8375 9.28565 23.8706 9.76594L23.875 9.90913H11.625C11.4107 9.90916 11.2038 9.99499 11.0437 10.1504C10.8835 10.3057 10.7812 10.5198 10.7561 10.752L10.75 10.8637V22.3184C10.3085 22.3186 9.88325 22.1367 9.55952 21.8092C9.23579 21.4817 9.03749 21.0328 9.00438 20.5525L9 20.4093V10.8637C8.99996 10.1332 9.25578 9.4304 9.71512 8.89895C10.1745 8.3675 10.8026 8.04763 11.471 8.00477L11.625 8H22.125ZM24.75 12.7728H13.375V20.2642L16.742 16.5911C16.8436 16.4802 16.9642 16.3923 17.0969 16.3323C17.2296 16.2723 17.3718 16.2415 17.5155 16.2415C17.6592 16.2415 17.8014 16.2723 17.9341 16.3323C18.0668 16.3923 18.1874 16.4802 18.289 16.5911L21.1249 19.6838L21.8984 18.841C21.9999 18.7301 22.1205 18.6422 22.2532 18.5822C22.386 18.5223 22.5282 18.4914 22.6719 18.4914C22.8155 18.4914 22.9578 18.5223 23.0905 18.5822C23.2232 18.6422 23.3438 18.7301 23.4454 18.841L24.75 20.2642V12.7728ZM21.6875 14.2047C21.8599 14.2047 22.0305 14.2417 22.1898 14.3137C22.349 14.3856 22.4937 14.4911 22.6156 14.624C22.7375 14.757 22.8341 14.9148 22.9001 15.0886C22.9661 15.2623 23 15.4485 23 15.6365C23 15.8245 22.9661 16.0107 22.9001 16.1844C22.8341 16.3582 22.7375 16.516 22.6156 16.649C22.4937 16.7819 22.349 16.8874 22.1898 16.9594C22.0305 17.0313 21.8599 17.0683 21.6875 17.0683C21.3394 17.0683 21.0056 16.9175 20.7594 16.649C20.5133 16.3804 20.375 16.0163 20.375 15.6365C20.375 15.2568 20.5133 14.8926 20.7594 14.624C21.0056 14.3555 21.3394 14.2047 21.6875 14.2047Z" fill="#0B3873"/>
</g>
<defs>
<clipPath id="clip0_5342_3251">
<rect width="35" height="35" fill="white"/>
</clipPath>
</defs>
</svg>
