<svg width="24" height="24" viewBox="0 0 24 24" fill="none" xmlns="http://www.w3.org/2000/svg">
<path d="M21 11.6667C21 14.142 20.0167 16.516 18.2663 18.2663C16.516 20.0167 14.142 21 11.6667 21C9.19131 21 6.81734 20.0167 5.067 18.2663C3.31666 16.516 2.33333 14.142 2.33333 11.6667C2.33333 9.19131 3.31666 6.81734 5.067 5.067C6.81734 3.31666 9.19131 2.33333 11.6667 2.33333C14.142 2.33333 16.516 3.31666 18.2663 5.067C20.0167 6.81734 21 9.19131 21 11.6667ZM11.6667 23.3333C18.1102 23.3333 23.3333 18.1102 23.3333 11.6667C23.3333 5.22317 18.1102 0 11.6667 0C5.22317 0 0 5.22317 0 11.6667C0 18.1102 5.22317 23.3333 11.6667 23.3333ZM12.0843 8.61233C10.9503 9.08445 8.68272 10.0617 5.2815 11.5442C4.7285 11.7635 4.43917 11.9782 4.4135 12.1882C4.36917 12.5428 4.81367 12.6828 5.41917 12.873L5.6735 12.9547C6.2685 13.1483 7.07117 13.3747 7.48767 13.384C7.86567 13.3918 8.28722 13.2362 8.75233 12.9173C11.9303 10.7707 13.5707 9.68606 13.6733 9.6635C13.7468 9.64717 13.8472 9.62617 13.9148 9.68683C13.9837 9.7475 13.9767 9.86183 13.9697 9.89333C13.9253 10.0812 12.18 11.704 11.277 12.5428C11.0094 12.7948 10.7438 13.0488 10.4802 13.3047C9.92717 13.8378 9.51183 14.238 10.5035 14.8913C11.508 15.554 12.5218 16.2143 13.5018 16.9132C13.9848 17.2585 14.4188 17.5665 14.9555 17.5187C15.267 17.4895 15.589 17.1967 15.7523 16.3217C16.1397 14.2567 16.8992 9.779 17.0742 7.93333C17.0843 7.78024 17.0777 7.62648 17.0543 7.47483C17.0405 7.35278 16.9814 7.24036 16.8887 7.15983C16.7487 7.0455 16.5328 7.02217 16.4372 7.02333C15.9985 7.0315 15.3253 7.26483 12.0855 8.61233" fill="#121212"/>
</svg>
