<svg width="24" height="24" viewBox="0 0 24 24" fill="none" xmlns="http://www.w3.org/2000/svg">
<path d="M11.75 7.5C11.8163 7.5 11.8799 7.52636 11.9268 7.57324C11.9736 7.62013 12 7.6837 12 7.75V12.6113L12.2354 12.7578L14.8828 14.4131C14.9106 14.4305 14.9351 14.4528 14.9541 14.4795C14.9732 14.5063 14.9868 14.5373 14.9941 14.5693C15.0014 14.601 15.0024 14.6339 14.9971 14.666C14.9916 14.6984 14.9794 14.7299 14.9619 14.7578C14.9445 14.7856 14.9222 14.8101 14.8955 14.8291C14.8687 14.8482 14.8377 14.8618 14.8057 14.8691C14.7573 14.8802 14.7069 14.8767 14.6611 14.8594L14.6172 14.8369L11.6172 12.9619C11.5814 12.9394 11.5517 12.9081 11.5312 12.8711C11.5108 12.8341 11.5 12.7923 11.5 12.75V7.75C11.5 7.6837 11.5264 7.62013 11.5732 7.57324C11.6201 7.52636 11.6837 7.5 11.75 7.5Z" fill="#121212" stroke="#121212"/>
<path d="M11.75 3.89453C13.938 3.89453 16.0368 4.76337 17.584 6.31055C19.1312 7.85772 20 9.95649 20 12.1445C20 14.3326 19.1312 16.4313 17.584 17.9785C16.0368 19.5257 13.938 20.3945 11.75 20.3945C9.56196 20.3945 7.46319 19.5257 5.91602 17.9785C4.36884 16.4313 3.5 14.3326 3.5 12.1445C3.5 9.9565 4.36884 7.85772 5.91602 6.31055C7.46319 4.76337 9.56196 3.89453 11.75 3.89453ZM11.75 4.39453C10.7323 4.39453 9.72445 4.5949 8.78418 4.98438C7.84391 5.37385 6.98919 5.94441 6.26953 6.66406C5.54988 7.38372 4.97932 8.23844 4.58984 9.17871C4.20037 10.119 4 11.1268 4 12.1445C4 14.2 4.81612 16.1716 6.26953 17.625C7.72294 19.0784 9.69457 19.8945 11.75 19.8945C13.8054 19.8945 15.7771 19.0784 17.2305 17.625C18.6839 16.1716 19.5 14.2 19.5 12.1445C19.5 11.1268 19.2996 10.119 18.9102 9.17871C18.5207 8.23844 17.9501 7.38372 17.2305 6.66406C16.5108 5.94441 15.6561 5.37385 14.7158 4.98438C13.7755 4.5949 12.7677 4.39453 11.75 4.39453Z" fill="#121212" stroke="#121212"/>
</svg>
