<svg width="79" height="70" viewBox="0 0 79 70" fill="none" xmlns="http://www.w3.org/2000/svg">
<path d="M1.25 70L13.75 19.319L17 33.871C12.1667 33.871 8.08333 32.3656 4.75 29.3548C1.58333 26.3441 0 22.2461 0 17.0609C0 12.043 1.58333 7.94504 4.75 4.76703C8.08333 1.58901 12.0833 0 16.75 0C21.5833 0 25.5 1.67264 28.5 5.01792C31.5 8.19594 33 12.2103 33 17.0609C33 18.7336 32.8333 20.4062 32.5 22.0789C32.3333 23.5842 31.9167 25.4241 31.25 27.5986C30.75 29.6057 29.9167 32.1147 28.75 35.1255L17 70H1.25Z" fill="#111111" fill-opacity="0.03"/>
<path d="M47.25 70L59.75 19.319L63 33.871C58.1667 33.871 54.0833 32.3656 50.75 29.3548C47.5833 26.3441 46 22.2461 46 17.0609C46 12.043 47.5833 7.94504 50.75 4.76703C54.0833 1.58901 58.0833 0 62.75 0C67.5833 0 71.5 1.67264 74.5 5.01792C77.5 8.19594 79 12.2103 79 17.0609C79 18.7336 78.8333 20.4062 78.5 22.0789C78.3333 23.5842 77.9167 25.4241 77.25 27.5986C76.75 29.6057 75.9167 32.1147 74.75 35.1255L63 70H47.25Z" fill="#111111" fill-opacity="0.03"/>
</svg>
