<svg width="92" height="51" viewBox="0 0 92 51" fill="none" xmlns="http://www.w3.org/2000/svg">
<path fill-rule="evenodd" clip-rule="evenodd" d="M39.0605 1.28828C37.3717 2.01417 35.761 2.95924 35.4811 3.38703C34.7554 4.49912 35.3754 4.35817 38.2373 2.75909C44.5365 -0.759733 52.8274 0.556743 58.0309 5.90158C62.4283 10.419 63.3133 14.6095 61.3833 21.7839C61.0163 23.1497 61.1138 23.366 61.818 22.7466C63.1838 21.5443 63.6854 13.971 62.6047 10.8708C61.3848 7.37028 57.0156 2.85494 53.297 1.25163C49.3946 -0.431319 43.0218 -0.41511 39.0605 1.28828ZM31.8139 10.684C33.2713 13.8822 34.6341 16.895 34.8425 17.3792C35.4997 18.9092 36.2039 18.3567 37.982 14.9125C39.3374 12.2895 39.8607 11.794 40.4003 12.6221C40.7792 13.2035 41.8376 14.8731 42.7523 16.3312L44.4151 18.9839L47.4929 11.9265C49.1862 8.04544 50.3473 4.86982 50.0734 4.87053C49.7995 4.87053 48.8594 6.53586 47.9834 8.57048L46.392 12.2697L44.6719 8.92215C43.7259 7.08063 42.7345 5.57458 42.4695 5.57458C42.2038 5.57458 41.3821 6.84313 40.6437 8.39358C39.9053 9.94404 39.0449 11.2126 38.7315 11.2126C38.4182 11.2126 37.586 9.78547 36.8827 8.04121C35.6389 4.95792 35.5139 4.86982 32.3833 4.86982H29.1634L31.8139 10.684ZM29.5757 11.3888C29.3294 12.2613 29.1224 14.7483 29.1172 16.9161C29.0979 24.2716 34.6758 30.6997 42.4464 32.2776C46.7024 33.1416 49.8263 32.7385 53.9275 30.7948C57.8277 28.9463 56.9285 28.4607 52.8497 30.2127C44.5186 33.7914 35.24 30.539 31.3323 22.669C29.9345 19.8557 29.735 18.5533 30.0878 14.5602C30.5218 9.65297 30.3565 8.62967 29.5757 11.3888ZM54.1128 17.6801L51.9923 21.2511L50.101 17.9937C49.0604 16.2022 47.9804 14.7363 47.7013 14.7363C47.0351 14.7363 41.6887 26.8849 42.1591 27.3296C42.3578 27.5177 43.0702 26.3471 43.7415 24.7276C44.4136 23.1088 45.1855 21.7839 45.4579 21.7839C45.7296 21.7839 46.7247 23.0862 47.67 24.6776L49.3879 27.572L51.4132 24.2886L53.4385 21.0051L55.0008 24.5655C56.5147 28.0153 56.6584 28.1266 59.5828 28.1266C61.2426 28.1266 62.601 27.9843 62.601 27.8095C62.601 27.431 56.7462 14.5961 56.4425 14.3086C56.3271 14.1993 55.2784 15.7167 54.1128 17.6801Z" fill="white"/>
<path d="M85.7782 51.0037C85.4044 51.0037 85.035 50.946 84.67 50.8304C84.305 50.7149 84.0068 50.555 83.7754 50.3506L84.5365 48.8712C84.6967 49.0133 84.8792 49.1244 85.0839 49.2044C85.2976 49.2843 85.5067 49.3243 85.7115 49.3243C86.0052 49.3243 86.2367 49.2532 86.4058 49.1111C86.5838 48.9778 86.7441 48.7512 86.8865 48.4313L87.2604 47.5516L87.4206 47.3251L89.9976 41.1406H92.0004L88.7558 48.7512C88.5244 49.3288 88.2573 49.7819 87.9547 50.1107C87.6609 50.4395 87.3316 50.6705 86.9666 50.8038C86.6105 50.9371 86.2144 51.0037 85.7782 51.0037ZM87.0067 48.5913L83.8021 41.1406H85.9518L88.4354 47.1385L87.0067 48.5913Z" fill="white"/>
<path d="M80.1421 48.4152C79.3232 48.4152 78.6022 48.2553 77.9791 47.9354C77.3648 47.6155 76.8886 47.1801 76.5504 46.6292C76.2121 46.0694 76.043 45.4341 76.043 44.7232C76.043 44.0035 76.2076 43.3682 76.537 42.8173C76.8753 42.2575 77.3337 41.8221 77.9123 41.5111C78.4909 41.1912 79.1452 41.0312 79.8751 41.0312C80.5783 41.0312 81.2103 41.1823 81.7711 41.4844C82.3408 41.7776 82.7904 42.2042 83.1197 42.764C83.4491 43.3149 83.6137 43.9768 83.6137 44.7499C83.6137 44.8299 83.6093 44.9232 83.6004 45.0298C83.5915 45.1275 83.5826 45.2208 83.5737 45.3097H77.7387V44.0968H82.4788L81.6777 44.4567C81.6777 44.0835 81.602 43.7592 81.4507 43.4837C81.2993 43.2082 81.0902 42.995 80.8231 42.8439C80.5561 42.684 80.2445 42.604 79.8884 42.604C79.5324 42.604 79.2164 42.684 78.9404 42.8439C78.6734 42.995 78.4642 43.2127 78.3129 43.497C78.1615 43.7725 78.0859 44.1012 78.0859 44.4833V44.8032C78.0859 45.1942 78.1704 45.5407 78.3396 45.8428C78.5176 46.1361 78.7624 46.3627 79.0739 46.5226C79.3944 46.6737 79.7683 46.7492 80.1955 46.7492C80.5783 46.7492 80.9121 46.6914 81.197 46.5759C81.4907 46.4604 81.7578 46.2871 81.9981 46.0561L83.1064 47.2557C82.777 47.6289 82.3631 47.9176 81.8646 48.122C81.3661 48.3175 80.792 48.4152 80.1421 48.4152Z" fill="white"/>
<path d="M71.6592 41.0312C72.2289 41.0312 72.7363 41.1468 73.1814 41.3778C73.6353 41.5999 73.9914 41.9465 74.2495 42.4174C74.5077 42.8795 74.6368 43.4748 74.6368 44.2034V48.3086H72.5538V44.5233C72.5538 43.9457 72.4247 43.5192 72.1666 43.2438C71.9173 42.9683 71.5613 42.8306 71.0984 42.8306C70.769 42.8306 70.4708 42.9017 70.2038 43.0439C69.9456 43.1771 69.7409 43.386 69.5896 43.6703C69.4471 43.9546 69.3759 44.3189 69.3759 44.7632V48.3086H67.293V41.1379H69.2825V43.1238L68.9086 42.524C69.1667 42.0442 69.5362 41.6755 70.0168 41.4178C70.4975 41.1601 71.045 41.0312 71.6592 41.0312Z" fill="white"/>
<path d="M61.9621 48.4152C61.1965 48.4152 60.5156 48.2553 59.9192 47.9354C59.3316 47.6155 58.8643 47.1801 58.5172 46.6292C58.1789 46.0694 58.0098 45.4341 58.0098 44.7232C58.0098 44.0035 58.1789 43.3682 58.5172 42.8173C58.8643 42.2575 59.3316 41.8221 59.9192 41.5111C60.5156 41.1912 61.1965 41.0312 61.9621 41.0312C62.7187 41.0312 63.3952 41.1912 63.9916 41.5111C64.588 41.8221 65.0554 42.253 65.3936 42.8039C65.7319 43.3549 65.901 43.9946 65.901 44.7232C65.901 45.4341 65.7319 46.0694 65.3936 46.6292C65.0554 47.1801 64.588 47.6155 63.9916 47.9354C63.3952 48.2553 62.7187 48.4152 61.9621 48.4152ZM61.9621 46.7092C62.3092 46.7092 62.6208 46.6292 62.8967 46.4693C63.1727 46.3093 63.3908 46.0828 63.551 45.7895C63.7112 45.4874 63.7913 45.132 63.7913 44.7232C63.7913 44.3056 63.7112 43.9502 63.551 43.657C63.3908 43.3637 63.1727 43.1372 62.8967 42.9772C62.6208 42.8173 62.3092 42.7373 61.9621 42.7373C61.6149 42.7373 61.3033 42.8173 61.0274 42.9772C60.7514 43.1372 60.5289 43.3637 60.3598 43.657C60.1996 43.9502 60.1194 44.3056 60.1194 44.7232C60.1194 45.132 60.1996 45.4874 60.3598 45.7895C60.5289 46.0828 60.7514 46.3093 61.0274 46.4693C61.3033 46.6292 61.6149 46.7092 61.9621 46.7092Z" fill="white"/>
<path d="M53.6861 41.0312C54.2558 41.0312 54.7587 41.1468 55.1949 41.3778C55.64 41.5999 55.9872 41.9465 56.2364 42.4174C56.4945 42.8795 56.6236 43.4748 56.6236 44.2034V48.3086H54.5406V44.5233C54.5406 43.9457 54.4205 43.5192 54.1801 43.2438C53.9398 42.9683 53.6015 42.8306 53.1654 42.8306C52.8627 42.8306 52.5912 42.9017 52.3509 43.0439C52.1105 43.1771 51.9236 43.3815 51.7901 43.657C51.6565 43.9324 51.5898 44.2834 51.5898 44.7099V48.3086H49.5068V44.5233C49.5068 43.9457 49.3866 43.5192 49.1463 43.2438C48.9149 42.9683 48.581 42.8306 48.1449 42.8306C47.8422 42.8306 47.5707 42.9017 47.3304 43.0439C47.09 43.1771 46.9031 43.3815 46.7696 43.657C46.6361 43.9324 46.5693 44.2834 46.5693 44.7099V48.3086H44.4863V41.1379H46.4758V43.0972L46.102 42.524C46.3512 42.0353 46.7028 41.6666 47.1568 41.4178C47.6197 41.1601 48.1449 41.0312 48.7324 41.0312C49.3911 41.0312 49.9652 41.2001 50.4548 41.5377C50.9533 41.8665 51.2827 42.373 51.4429 43.0572L50.7085 42.8573C50.9489 42.2975 51.3316 41.8532 51.8568 41.5244C52.3909 41.1956 53.0007 41.0312 53.6861 41.0312Z" fill="white"/>
<path d="M35.8472 48.4152C35.0283 48.4152 34.3072 48.2553 33.6841 47.9354C33.0699 47.6155 32.5937 47.1801 32.2554 46.6292C31.9172 46.0694 31.748 45.4341 31.748 44.7232C31.748 44.0035 31.9127 43.3682 32.2421 42.8173C32.5803 42.2575 33.0388 41.8221 33.6174 41.5111C34.196 41.1912 34.8502 41.0312 35.5802 41.0312C36.2834 41.0312 36.9154 41.1823 37.4762 41.4844C38.0459 41.7776 38.4954 42.2042 38.8248 42.764C39.1542 43.3149 39.3188 43.9768 39.3188 44.7499C39.3188 44.8299 39.3144 44.9232 39.3055 45.0298C39.2966 45.1275 39.2877 45.2208 39.2788 45.3097H33.4438V44.0968H38.1839L37.3827 44.4567C37.3827 44.0835 37.3071 43.7592 37.1557 43.4837C37.0044 43.2082 36.7952 42.995 36.5282 42.8439C36.2611 42.684 35.9496 42.604 35.5935 42.604C35.2375 42.604 34.9215 42.684 34.6455 42.8439C34.3785 42.995 34.1693 43.2127 34.0179 43.497C33.8666 43.7725 33.791 44.1012 33.791 44.4833V44.8032C33.791 45.1942 33.8755 45.5407 34.0447 45.8428C34.2227 46.1361 34.4675 46.3627 34.779 46.5226C35.0995 46.6737 35.4734 46.7492 35.9006 46.7492C36.2834 46.7492 36.6172 46.6914 36.9021 46.5759C37.1958 46.4604 37.4629 46.2871 37.7032 46.0561L38.8114 47.2557C38.4821 47.6289 38.0682 47.9176 37.5697 48.122C37.0712 48.3175 36.497 48.4152 35.8472 48.4152Z" fill="white"/>
<path d="M29.6378 48.4181C28.7921 48.4181 28.1334 48.2049 27.6616 47.7784C27.1898 47.343 26.9539 46.6988 26.9539 45.8457V39.5547H29.0369V45.8191C29.0369 46.1212 29.117 46.3567 29.2773 46.5255C29.4375 46.6854 29.6556 46.7654 29.9315 46.7654C30.2609 46.7654 30.5413 46.6766 30.7727 46.4988L31.3335 47.965C31.1199 48.116 30.8617 48.2315 30.5591 48.3115C30.2653 48.3826 29.9582 48.4181 29.6378 48.4181ZM25.8457 42.9001V41.3007H30.8261V42.9001H25.8457Z" fill="white"/>
<path d="M22.6853 48.302V41.1313H24.7683V48.302H22.6853ZM23.7268 40.1317C23.3441 40.1317 23.0325 40.0206 22.7922 39.7984C22.5518 39.5763 22.4316 39.3008 22.4316 38.9721C22.4316 38.6433 22.5518 38.3679 22.7922 38.1457C23.0325 37.9236 23.3441 37.8125 23.7268 37.8125C24.1096 37.8125 24.4211 37.9191 24.6615 38.1324C24.9018 38.3368 25.022 38.6033 25.022 38.9321C25.022 39.2786 24.9018 39.5674 24.6615 39.7984C24.43 40.0206 24.1185 40.1317 23.7268 40.1317Z" fill="white"/>
<path d="M17.8193 41.0343C18.389 41.0343 18.8964 41.1498 19.3415 41.3808C19.7955 41.6029 20.1516 41.9495 20.4097 42.4204C20.6678 42.8825 20.7969 43.4778 20.7969 44.2064V48.3116H18.7139V44.5263C18.7139 43.9488 18.5849 43.5222 18.3267 43.2468C18.0775 42.9713 17.7214 42.8336 17.2585 42.8336C16.9292 42.8336 16.631 42.9047 16.3639 43.0469C16.1058 43.1802 15.9011 43.389 15.7497 43.6733C15.6073 43.9576 15.5361 44.322 15.5361 44.7662V48.3116H13.4531V38.4219H15.5361V43.1268L15.0688 42.5271C15.3269 42.0472 15.6963 41.6785 16.177 41.4208C16.6577 41.1631 17.2051 41.0343 17.8193 41.0343Z" fill="white"/>
<path d="M2.59036 48.3114L0 41.1406H1.9628L4.11252 47.3117H3.17786L5.42105 41.1406H7.18356L9.36 47.3117H8.42533L10.6418 41.1406H12.4844L9.88074 48.3114H7.86453L5.95515 43.0199H6.56936L4.59321 48.3114H2.59036Z" fill="white"/>
</svg>
