<svg width="27" height="27" viewBox="0 0 27 27" fill="none" xmlns="http://www.w3.org/2000/svg">
<path d="M24 13.3333C24 16.1623 22.8762 18.8754 20.8758 20.8758C18.8754 22.8762 16.1623 24 13.3333 24C10.5044 24 7.79125 22.8762 5.79086 20.8758C3.79047 18.8754 2.66667 16.1623 2.66667 13.3333C2.66667 10.5044 3.79047 7.79125 5.79086 5.79086C7.79125 3.79047 10.5044 2.66667 13.3333 2.66667C16.1623 2.66667 18.8754 3.79047 20.8758 5.79086C22.8762 7.79125 24 10.5044 24 13.3333ZM13.3333 26.6667C20.6973 26.6667 26.6667 20.6973 26.6667 13.3333C26.6667 5.96933 20.6973 0 13.3333 0C5.96933 0 0 5.96933 0 13.3333C0 20.6973 5.96933 26.6667 13.3333 26.6667ZM13.8107 9.84267C12.5147 10.3822 9.92311 11.4991 6.036 13.1933C5.404 13.444 5.07333 13.6893 5.044 13.9293C4.99333 14.3347 5.50133 14.4947 6.19333 14.712L6.484 14.8053C7.164 15.0267 8.08133 15.2853 8.55733 15.296C8.98933 15.3049 9.47111 15.1271 10.0027 14.7627C13.6347 12.3093 15.5093 11.0698 15.6267 11.044C15.7107 11.0253 15.8253 11.0013 15.9027 11.0707C15.9813 11.14 15.9733 11.2707 15.9653 11.3067C15.9147 11.5213 13.92 13.376 12.888 14.3347C12.5822 14.6227 12.2787 14.9129 11.9773 15.2053C11.3453 15.8147 10.8707 16.272 12.004 17.0187C13.152 17.776 14.3107 18.5307 15.4307 19.3293C15.9827 19.724 16.4787 20.076 17.092 20.0213C17.448 19.988 17.816 19.6533 18.0027 18.6533C18.4453 16.2933 19.3133 11.176 19.5133 9.06667C19.5249 8.8917 19.5173 8.71598 19.4907 8.54267C19.4749 8.40318 19.4073 8.27469 19.3013 8.18267C19.1413 8.052 18.8947 8.02533 18.7853 8.02667C18.284 8.036 17.5147 8.30267 13.812 9.84267" fill="#A6A6A6"/>
</svg>
