<svg width="27" height="27" viewBox="0 0 27 27" fill="none" xmlns="http://www.w3.org/2000/svg">
<path d="M13.3333 24C16.1623 24 18.8754 22.8762 20.8758 20.8758C22.8762 18.8754 24 16.1623 24 13.3333C24 10.5044 22.8762 7.79125 20.8758 5.79086C18.8754 3.79047 16.1623 2.66667 13.3333 2.66667C10.5044 2.66667 7.79125 3.79047 5.79086 5.79086C3.79047 7.79125 2.66667 10.5044 2.66667 13.3333C2.66667 16.1623 3.79047 18.8754 5.79086 20.8758C7.79125 22.8762 10.5044 24 13.3333 24ZM13.3333 26.6667C5.96933 26.6667 0 20.6973 0 13.3333C0 5.96933 5.96933 0 13.3333 0C20.6973 0 26.6667 5.96933 26.6667 13.3333C26.6667 20.6973 20.6973 26.6667 13.3333 26.6667Z" fill="white"/>
<path d="M18.1938 12.538C18.2098 10.5486 16.5685 8.72464 14.5352 8.47264L14.4018 8.45264C14.2999 8.43249 14.1964 8.42089 14.0925 8.41797C13.6752 8.41797 13.5645 8.7193 13.5352 8.8993C13.5185 8.97406 13.517 9.05139 13.5308 9.12673C13.5445 9.20207 13.5732 9.2739 13.6152 9.33797C13.7538 9.5313 13.9965 9.56464 14.1912 9.59397C14.2498 9.60108 14.3018 9.60997 14.3472 9.62064C16.1752 10.0406 16.7912 10.7033 17.0912 12.574C17.0983 12.6211 17.1027 12.6753 17.1045 12.7366C17.1178 12.9593 17.1458 13.4246 17.6312 13.4246C17.6712 13.4246 17.7138 13.4211 17.7592 13.414C18.2112 13.3433 18.1965 12.918 18.1898 12.714C18.1871 12.6647 18.1871 12.6153 18.1898 12.566L18.1925 12.5393L18.1938 12.538Z" fill="white"/>
<path d="M13.9745 7.74252C14.0278 7.74652 14.0811 7.75052 14.1225 7.75719C17.1225 8.23452 18.5038 9.70119 18.8865 12.8239C18.8918 12.8781 18.8945 12.9403 18.8945 13.0105C18.8985 13.2545 18.9065 13.7612 19.4345 13.7719H19.4505C19.523 13.7759 19.5955 13.7643 19.6632 13.7378C19.7308 13.7114 19.7919 13.6707 19.8425 13.6185C20.0065 13.4412 19.9958 13.1785 19.9865 12.9652C19.9829 12.9136 19.9816 12.8661 19.9825 12.8225C20.0198 9.62919 17.3425 6.73319 14.2518 6.62652L14.2145 6.62785L14.1785 6.63052C14.1465 6.63052 14.11 6.62874 14.0691 6.62519L13.9091 6.61719C13.4171 6.61719 13.3238 6.97719 13.3118 7.19319C13.2851 7.69052 13.7505 7.72652 13.9745 7.74252ZM18.7411 16.8585L18.5505 16.7052C18.2225 16.4332 17.8731 16.1825 17.5371 15.9399L17.3265 15.7879C16.8945 15.4759 16.5065 15.3225 16.1398 15.3225C15.6465 15.3225 15.2158 15.6052 14.8598 16.1612C14.7043 16.4056 14.5096 16.5274 14.2758 16.5265C14.112 16.5206 13.9514 16.4792 13.8051 16.4052C12.4118 15.7519 11.4158 14.7519 10.8465 13.4319C10.5718 12.7919 10.6598 12.3759 11.1451 12.0359C11.4198 11.8439 11.9318 11.4852 11.8958 10.7985C11.8558 10.0185 10.1878 7.67185 9.48515 7.40519C9.18531 7.29255 8.85495 7.2916 8.55448 7.40252C7.74781 7.68252 7.16781 8.17585 6.87848 8.82519C6.59848 9.45452 6.61181 10.1919 6.91581 10.9599C7.79181 13.1812 9.02248 15.1172 10.5771 16.7145C12.0971 18.2785 13.9665 19.5585 16.1318 20.5212C16.3265 20.6079 16.5318 20.6545 16.6811 20.6892L16.8078 20.7212C16.8253 20.7257 16.8431 20.7283 16.8611 20.7292H16.8785C17.8971 20.7292 19.1198 19.7692 19.4958 18.6732C19.8251 17.7132 19.2238 17.2399 18.7411 16.8599V16.8585ZM14.4251 10.2799C14.2518 10.2839 13.8878 10.2932 13.7598 10.6745C13.7011 10.8541 13.7083 11.0074 13.7811 11.1345C13.8891 11.3212 14.0971 11.3785 14.2851 11.4092C14.9678 11.5225 15.3198 11.9132 15.3891 12.6359C15.4225 12.9745 15.6425 13.2092 15.9251 13.2092L15.9891 13.2065C16.3296 13.163 16.4927 12.9074 16.4785 12.4399C16.4838 11.9519 16.2371 11.3999 15.8171 10.9599C15.3958 10.5172 14.8878 10.2679 14.4251 10.2799Z" fill="white"/>
</svg>
