<svg width="27" height="27" viewBox="0 0 27 27" fill="none" xmlns="http://www.w3.org/2000/svg">
<path d="M13.3333 24C16.1623 24 18.8754 22.8762 20.8758 20.8758C22.8762 18.8754 24 16.1623 24 13.3333C24 10.5044 22.8762 7.79125 20.8758 5.79086C18.8754 3.79047 16.1623 2.66667 13.3333 2.66667C10.5044 2.66667 7.79125 3.79047 5.79086 5.79086C3.79047 7.79125 2.66667 10.5044 2.66667 13.3333C2.66667 16.1623 3.79047 18.8754 5.79086 20.8758C7.79125 22.8762 10.5044 24 13.3333 24ZM13.3333 26.6667C5.96933 26.6667 0 20.6973 0 13.3333C0 5.96933 5.96933 0 13.3333 0C20.6973 0 26.6667 5.96933 26.6667 13.3333C26.6667 20.6973 20.6973 26.6667 13.3333 26.6667Z" fill="#A6A6A6"/>
<path d="M18.1929 12.538C18.2089 10.5486 16.5675 8.72464 14.5342 8.47264L14.4009 8.45264C14.2989 8.43249 14.1954 8.42089 14.0915 8.41797C13.6742 8.41797 13.5635 8.7193 13.5342 8.8993C13.5176 8.97406 13.5161 9.05139 13.5298 9.12673C13.5436 9.20207 13.5722 9.2739 13.6142 9.33797C13.7529 9.5313 13.9955 9.56464 14.1902 9.59397C14.2489 9.60108 14.3009 9.60997 14.3462 9.62064C16.1742 10.0406 16.7902 10.7033 17.0902 12.574C17.0973 12.6211 17.1018 12.6753 17.1035 12.7366C17.1169 12.9593 17.1449 13.4246 17.6302 13.4246C17.6702 13.4246 17.7129 13.4211 17.7582 13.414C18.2102 13.3433 18.1955 12.918 18.1889 12.714C18.1861 12.6647 18.1861 12.6153 18.1889 12.566L18.1915 12.5393L18.1929 12.538Z" fill="#A6A6A6"/>
<path d="M13.9735 7.74252C14.0268 7.74652 14.0802 7.75052 14.1215 7.75719C17.1215 8.23452 18.5028 9.70119 18.8855 12.8239C18.8908 12.8781 18.8935 12.9403 18.8935 13.0105C18.8975 13.2545 18.9055 13.7612 19.4335 13.7719H19.4495C19.522 13.7759 19.5945 13.7643 19.6622 13.7378C19.7298 13.7114 19.791 13.6707 19.8415 13.6185C20.0055 13.4412 19.9948 13.1785 19.9855 12.9652C19.9819 12.9136 19.9806 12.8661 19.9815 12.8225C20.0188 9.62919 17.3415 6.73319 14.2508 6.62652L14.2135 6.62785L14.1775 6.63052C14.1455 6.63052 14.1091 6.62874 14.0682 6.62519L13.9082 6.61719C13.4162 6.61719 13.3228 6.97719 13.3108 7.19319C13.2842 7.69052 13.7495 7.72652 13.9735 7.74252ZM18.7402 16.8585L18.5495 16.7052C18.2215 16.4332 17.8722 16.1825 17.5362 15.9399L17.3255 15.7879C16.8935 15.4759 16.5055 15.3225 16.1388 15.3225C15.6455 15.3225 15.2148 15.6052 14.8588 16.1612C14.7033 16.4056 14.5086 16.5274 14.2748 16.5265C14.111 16.5206 13.9504 16.4792 13.8042 16.4052C12.4108 15.7519 11.4148 14.7519 10.8455 13.4319C10.5708 12.7919 10.6588 12.3759 11.1442 12.0359C11.4188 11.8439 11.9308 11.4852 11.8948 10.7985C11.8548 10.0185 10.1868 7.67185 9.48417 7.40519C9.18434 7.29255 8.85398 7.2916 8.5535 7.40252C7.74684 7.68252 7.16684 8.17585 6.8775 8.82519C6.5975 9.45452 6.61084 10.1919 6.91484 10.9599C7.79084 13.1812 9.0215 15.1172 10.5762 16.7145C12.0962 18.2785 13.9655 19.5585 16.1308 20.5212C16.3255 20.6079 16.5308 20.6545 16.6802 20.6892L16.8068 20.7212C16.8243 20.7257 16.8422 20.7283 16.8602 20.7292H16.8775C17.8962 20.7292 19.1188 19.7692 19.4948 18.6732C19.8242 17.7132 19.2228 17.2399 18.7402 16.8599V16.8585ZM14.4242 10.2799C14.2508 10.2839 13.8868 10.2932 13.7588 10.6745C13.7002 10.8541 13.7073 11.0074 13.7802 11.1345C13.8882 11.3212 14.0962 11.3785 14.2842 11.4092C14.9668 11.5225 15.3188 11.9132 15.3882 12.6359C15.4215 12.9745 15.6415 13.2092 15.9242 13.2092L15.9882 13.2065C16.3286 13.163 16.4917 12.9074 16.4775 12.4399C16.4828 11.9519 16.2362 11.3999 15.8162 10.9599C15.3948 10.5172 14.8868 10.2679 14.4242 10.2799Z" fill="#A6A6A6"/>
</svg>
